{
    "asset": {
        "generator": "Khronos glTF Blender I/O v3.6.27",
        "version": "2.0"
    },
    "scene": 0,
    "scenes": [
        {
            "name": "Scene",
            "nodes": [10]
        }
    ],
    "nodes": [
        {
            "mesh": 0,
            "name": "pCube1",
            "scale": [1, 1, 1.7551101446151733],
            "translation": [0, 0, -0.8206543922424316]
        },
        {
            "mesh": 1,
            "name": "pCube10",
            "rotation": [
                -0.17879101634025574, 0.10725605487823486, 0.20353607833385468,
                0.9566101431846619
            ],
            "scale": [
                0.7641095519065857, 0.7641096711158752, 0.7641096115112305
            ],
            "translation": [
                -0.9270893335342407, -0.34416893124580383, -7.088170051574707
            ]
        },
        {
            "mesh": 2,
            "name": "pCube2",
            "rotation": [0.0883575826883316, 0, 0, 0.9960888028144836],
            "scale": [
                1.9247287511825562, 4.873893737792969, 0.29551032185554504
            ],
            "translation": [
                -1.0370745658874512, -4.019921779632568, -7.5477614402771
            ]
        },
        {
            "mesh": 3,
            "name": "pCube3",
            "rotation": [
                -0.10183992981910706, 0.20836025476455688, -0.6147269010543823,
                0.7538736462593079
            ],
            "scale": [
                2.0291595458984375, 4.085509777069092, 0.29551035165786743
            ],
            "translation": [
                -2.8395261764526367, -1.77497136592865, -6.463614463806152
            ]
        },
        {
            "mesh": 4,
            "name": "pCube4",
            "rotation": [
                0.1487874537706375, 0.21698585152626038, 0.8787301182746887,
                0.39826226234436035
            ],
            "scale": [
                1.7039680480957031, 4.314872741699219, 0.26161617040634155
            ],
            "translation": [
                0.5684210658073425, -0.0005191804957576096, -8.798203468322754
            ]
        },
        {
            "mesh": 5,
            "name": "pCube5",
            "rotation": [
                -0.22392581403255463, 0.00363085581921041, 0.1740945726633072,
                0.9589240550994873
            ],
            "scale": [
                1.9247283935546875, 3.9375545978546143, 0.3777424991130829
            ],
            "translation": [
                -1.6033587455749512, 0.9685045480728149, -8.386985778808594
            ]
        },
        {
            "mesh": 6,
            "name": "pCube6",
            "rotation": [
                0.34614044427871704, -0.09929714351892471, -0.3695921301841736,
                0.8565795421600342
            ],
            "scale": [
                1.5866256952285767, 4.017733097076416, 0.24360021948814392
            ],
            "translation": [
                -2.2825064659118652, -2.4887382984161377, -9.220193862915039
            ]
        },
        {
            "mesh": 7,
            "name": "pCube7",
            "rotation": [
                0.16999779641628265, 0.0981062576174736, 0.36835339665412903,
                0.9087308049201965
            ],
            "scale": [
                1.9247287511825562, 3.9746408462524414, 0.3469823896884918
            ],
            "translation": [
                0.47929301857948303, -2.9921209812164307, -8.149924278259277
            ]
        },
        {
            "mesh": 8,
            "name": "pCube8",
            "scale": [
                0.8007924556732178, 0.8007924556732178, 0.8007924556732178
            ],
            "translation": [
                -0.12315203249454498, -1.1050965785980225, -7.098211288452148
            ]
        },
        {
            "mesh": 9,
            "name": "pCube9",
            "rotation": [0, 0, -0.28849005699157715, 0.9574829936027527],
            "scale": [
                0.8007924556732178, 0.8007924556732178, 0.8007924556732178
            ],
            "translation": [
                -0.9589861631393433, -0.908387303352356, -6.495258808135986
            ]
        },
        {
            "children": [0, 1, 2, 3, 4, 5, 6, 7, 8, 9],
            "name": "palm",
            "rotation": [0.7071068286895752, 0, 0, 0.7071068286895752],
            "scale": [
                0.8398701548576355, 0.8398701548576355, 0.8398701548576355
            ]
        }
    ],
    "materials": [
        {
            "doubleSided": true,
            "name": "Trunk",
            "pbrMetallicRoughness": {
                "baseColorFactor": [
                    0.45753636956214905, 0.21229402720928192,
                    0.043613459914922714, 1
                ],
                "metallicFactor": 0,
                "roughnessFactor": 0.762910783290863
            }
        },
        {
            "doubleSided": true,
            "name": "Coconut",
            "pbrMetallicRoughness": {
                "baseColorFactor": [
                    0.24619793891906738, 0.10192311555147171,
                    0.009785797446966171, 1
                ],
                "metallicFactor": 0,
                "roughnessFactor": 0.8755868673324585
            }
        },
        {
            "doubleSided": true,
            "name": "Leaves",
            "pbrMetallicRoughness": {
                "baseColorFactor": [
                    0.3264939785003662, 0.761277973651886, 0.05458921939134598,
                    1
                ],
                "metallicFactor": 0,
                "roughnessFactor": 0.8849765062332153
            }
        }
    ],
    "meshes": [
        {
            "name": "Mesh.006",
            "primitives": [
                {
                    "attributes": {
                        "POSITION": 0,
                        "NORMAL": 1,
                        "TEXCOORD_0": 2
                    },
                    "indices": 3,
                    "material": 0
                }
            ]
        },
        {
            "name": "Mesh.002",
            "primitives": [
                {
                    "attributes": {
                        "POSITION": 4,
                        "NORMAL": 5,
                        "TEXCOORD_0": 6
                    },
                    "indices": 7,
                    "material": 1
                }
            ]
        },
        {
            "name": "Mesh.001",
            "primitives": [
                {
                    "attributes": {
                        "POSITION": 8,
                        "NORMAL": 9,
                        "TEXCOORD_0": 10
                    },
                    "indices": 11,
                    "material": 2
                }
            ]
        },
        {
            "name": "Mesh.004",
            "primitives": [
                {
                    "attributes": {
                        "POSITION": 12,
                        "NORMAL": 13,
                        "TEXCOORD_0": 14
                    },
                    "indices": 11,
                    "material": 2
                }
            ]
        },
        {
            "name": "Mesh.009",
            "primitives": [
                {
                    "attributes": {
                        "POSITION": 15,
                        "NORMAL": 16,
                        "TEXCOORD_0": 17
                    },
                    "indices": 18,
                    "material": 2
                }
            ]
        },
        {
            "name": "Mesh.005",
            "primitives": [
                {
                    "attributes": {
                        "POSITION": 19,
                        "NORMAL": 20,
                        "TEXCOORD_0": 21
                    },
                    "indices": 11,
                    "material": 2
                }
            ]
        },
        {
            "name": "Mesh",
            "primitives": [
                {
                    "attributes": {
                        "POSITION": 22,
                        "NORMAL": 23,
                        "TEXCOORD_0": 24
                    },
                    "indices": 25,
                    "material": 2
                }
            ]
        },
        {
            "name": "Mesh.003",
            "primitives": [
                {
                    "attributes": {
                        "POSITION": 26,
                        "NORMAL": 27,
                        "TEXCOORD_0": 28
                    },
                    "indices": 11,
                    "material": 2
                }
            ]
        },
        {
            "name": "Mesh.007",
            "primitives": [
                {
                    "attributes": {
                        "POSITION": 29,
                        "NORMAL": 30,
                        "TEXCOORD_0": 31
                    },
                    "indices": 7,
                    "material": 1
                }
            ]
        },
        {
            "name": "Mesh.008",
            "primitives": [
                {
                    "attributes": {
                        "POSITION": 32,
                        "NORMAL": 33,
                        "TEXCOORD_0": 34
                    },
                    "indices": 7,
                    "material": 1
                }
            ]
        }
    ],
    "accessors": [
        {
            "bufferView": 0,
            "componentType": 5126,
            "count": 104,
            "max": [0.7997728586196899, 0.6961526870727539, 0.5],
            "min": [
                -1.1827685832977295, -1.6297237873077393, -3.8416411876678467
            ],
            "type": "VEC3"
        },
        {
            "bufferView": 1,
            "componentType": 5126,
            "count": 104,
            "type": "VEC3"
        },
        {
            "bufferView": 2,
            "componentType": 5126,
            "count": 104,
            "type": "VEC2"
        },
        {
            "bufferView": 3,
            "componentType": 5123,
            "count": 156,
            "type": "SCALAR"
        },
        {
            "bufferView": 4,
            "componentType": 5126,
            "count": 54,
            "max": [0.6912522912025452, 0.7758439779281616, 0.7556689381599426],
            "min": [
                -0.6912522912025452, -0.7758439779281616, -0.7556689381599426
            ],
            "type": "VEC3"
        },
        {
            "bufferView": 5,
            "componentType": 5126,
            "count": 54,
            "type": "VEC3"
        },
        {
            "bufferView": 6,
            "componentType": 5126,
            "count": 54,
            "type": "VEC2"
        },
        {
            "bufferView": 7,
            "componentType": 5123,
            "count": 144,
            "type": "SCALAR"
        },
        {
            "bufferView": 8,
            "componentType": 5126,
            "count": 62,
            "max": [0.5, 0.5907419919967651, 0.5],
            "min": [-0.5, -0.6041038036346436, -2.739896059036255],
            "type": "VEC3"
        },
        {
            "bufferView": 9,
            "componentType": 5126,
            "count": 62,
            "type": "VEC3"
        },
        {
            "bufferView": 10,
            "componentType": 5126,
            "count": 62,
            "type": "VEC2"
        },
        {
            "bufferView": 11,
            "componentType": 5123,
            "count": 168,
            "type": "SCALAR"
        },
        {
            "bufferView": 12,
            "componentType": 5126,
            "count": 62,
            "max": [0.5167191028594971, 0.5907419919967651, 0.5],
            "min": [
                -0.48791396617889404, -0.6041038036346436, -3.13187313079834
            ],
            "type": "VEC3"
        },
        {
            "bufferView": 13,
            "componentType": 5126,
            "count": 62,
            "type": "VEC3"
        },
        {
            "bufferView": 14,
            "componentType": 5126,
            "count": 62,
            "type": "VEC2"
        },
        {
            "bufferView": 15,
            "componentType": 5126,
            "count": 62,
            "max": [0.5, 0.5907419919967651, 1.724655032157898],
            "min": [-0.5, -0.6041038036346436, -3.5043513774871826],
            "type": "VEC3"
        },
        {
            "bufferView": 16,
            "componentType": 5126,
            "count": 62,
            "type": "VEC3"
        },
        {
            "bufferView": 17,
            "componentType": 5126,
            "count": 62,
            "type": "VEC2"
        },
        {
            "bufferView": 18,
            "componentType": 5123,
            "count": 168,
            "type": "SCALAR"
        },
        {
            "bufferView": 19,
            "componentType": 5126,
            "count": 62,
            "max": [0.5, 0.5907419919967651, 0.5],
            "min": [-0.5, -0.6041038036346436, -2.739896059036255],
            "type": "VEC3"
        },
        {
            "bufferView": 20,
            "componentType": 5126,
            "count": 62,
            "type": "VEC3"
        },
        {
            "bufferView": 21,
            "componentType": 5126,
            "count": 62,
            "type": "VEC2"
        },
        {
            "bufferView": 22,
            "componentType": 5126,
            "count": 62,
            "max": [0.5342617034912109, 0.5907419919967651, 1.7615548372268677],
            "min": [-0.5, -0.5847688913345337, -2.739896059036255],
            "type": "VEC3"
        },
        {
            "bufferView": 23,
            "componentType": 5126,
            "count": 62,
            "type": "VEC3"
        },
        {
            "bufferView": 24,
            "componentType": 5126,
            "count": 62,
            "type": "VEC2"
        },
        {
            "bufferView": 25,
            "componentType": 5123,
            "count": 168,
            "type": "SCALAR"
        },
        {
            "bufferView": 26,
            "componentType": 5126,
            "count": 62,
            "max": [0.5, 0.5907419919967651, 0.5],
            "min": [-0.5, -0.6041038036346436, -2.739896059036255],
            "type": "VEC3"
        },
        {
            "bufferView": 27,
            "componentType": 5126,
            "count": 62,
            "type": "VEC3"
        },
        {
            "bufferView": 28,
            "componentType": 5126,
            "count": 62,
            "type": "VEC2"
        },
        {
            "bufferView": 29,
            "componentType": 5126,
            "count": 54,
            "max": [0.6912522912025452, 0.7758439779281616, 0.7556689381599426],
            "min": [
                -0.6912522912025452, -0.7758439779281616, -0.7556689381599426
            ],
            "type": "VEC3"
        },
        {
            "bufferView": 30,
            "componentType": 5126,
            "count": 54,
            "type": "VEC3"
        },
        {
            "bufferView": 31,
            "componentType": 5126,
            "count": 54,
            "type": "VEC2"
        },
        {
            "bufferView": 32,
            "componentType": 5126,
            "count": 54,
            "max": [0.6912522912025452, 0.7758439779281616, 0.7556689381599426],
            "min": [
                -0.6912522912025452, -0.7758439779281616, -0.7556689381599426
            ],
            "type": "VEC3"
        },
        {
            "bufferView": 33,
            "componentType": 5126,
            "count": 54,
            "type": "VEC3"
        },
        {
            "bufferView": 34,
            "componentType": 5126,
            "count": 54,
            "type": "VEC2"
        }
    ],
    "bufferViews": [
        {
            "buffer": 0,
            "byteLength": 1248,
            "byteOffset": 0,
            "target": 34962
        },
        {
            "buffer": 0,
            "byteLength": 1248,
            "byteOffset": 1248,
            "target": 34962
        },
        {
            "buffer": 0,
            "byteLength": 832,
            "byteOffset": 2496,
            "target": 34962
        },
        {
            "buffer": 0,
            "byteLength": 312,
            "byteOffset": 3328,
            "target": 34963
        },
        {
            "buffer": 0,
            "byteLength": 648,
            "byteOffset": 3640,
            "target": 34962
        },
        {
            "buffer": 0,
            "byteLength": 648,
            "byteOffset": 4288,
            "target": 34962
        },
        {
            "buffer": 0,
            "byteLength": 432,
            "byteOffset": 4936,
            "target": 34962
        },
        {
            "buffer": 0,
            "byteLength": 288,
            "byteOffset": 5368,
            "target": 34963
        },
        {
            "buffer": 0,
            "byteLength": 744,
            "byteOffset": 5656,
            "target": 34962
        },
        {
            "buffer": 0,
            "byteLength": 744,
            "byteOffset": 6400,
            "target": 34962
        },
        {
            "buffer": 0,
            "byteLength": 496,
            "byteOffset": 7144,
            "target": 34962
        },
        {
            "buffer": 0,
            "byteLength": 336,
            "byteOffset": 7640,
            "target": 34963
        },
        {
            "buffer": 0,
            "byteLength": 744,
            "byteOffset": 7976,
            "target": 34962
        },
        {
            "buffer": 0,
            "byteLength": 744,
            "byteOffset": 8720,
            "target": 34962
        },
        {
            "buffer": 0,
            "byteLength": 496,
            "byteOffset": 9464,
            "target": 34962
        },
        {
            "buffer": 0,
            "byteLength": 744,
            "byteOffset": 9960,
            "target": 34962
        },
        {
            "buffer": 0,
            "byteLength": 744,
            "byteOffset": 10704,
            "target": 34962
        },
        {
            "buffer": 0,
            "byteLength": 496,
            "byteOffset": 11448,
            "target": 34962
        },
        {
            "buffer": 0,
            "byteLength": 336,
            "byteOffset": 11944,
            "target": 34963
        },
        {
            "buffer": 0,
            "byteLength": 744,
            "byteOffset": 12280,
            "target": 34962
        },
        {
            "buffer": 0,
            "byteLength": 744,
            "byteOffset": 13024,
            "target": 34962
        },
        {
            "buffer": 0,
            "byteLength": 496,
            "byteOffset": 13768,
            "target": 34962
        },
        {
            "buffer": 0,
            "byteLength": 744,
            "byteOffset": 14264,
            "target": 34962
        },
        {
            "buffer": 0,
            "byteLength": 744,
            "byteOffset": 15008,
            "target": 34962
        },
        {
            "buffer": 0,
            "byteLength": 496,
            "byteOffset": 15752,
            "target": 34962
        },
        {
            "buffer": 0,
            "byteLength": 336,
            "byteOffset": 16248,
            "target": 34963
        },
        {
            "buffer": 0,
            "byteLength": 744,
            "byteOffset": 16584,
            "target": 34962
        },
        {
            "buffer": 0,
            "byteLength": 744,
            "byteOffset": 17328,
            "target": 34962
        },
        {
            "buffer": 0,
            "byteLength": 496,
            "byteOffset": 18072,
            "target": 34962
        },
        {
            "buffer": 0,
            "byteLength": 648,
            "byteOffset": 18568,
            "target": 34962
        },
        {
            "buffer": 0,
            "byteLength": 648,
            "byteOffset": 19216,
            "target": 34962
        },
        {
            "buffer": 0,
            "byteLength": 432,
            "byteOffset": 19864,
            "target": 34962
        },
        {
            "buffer": 0,
            "byteLength": 648,
            "byteOffset": 20296,
            "target": 34962
        },
        {
            "buffer": 0,
            "byteLength": 648,
            "byteOffset": 20944,
            "target": 34962
        },
        {
            "buffer": 0,
            "byteLength": 432,
            "byteOffset": 21592,
            "target": 34962
        }
    ],
    "buffers": [
        {
            "byteLength": 22024,
            "uri": "data:application/octet-stream;base64,"
        }
    ]
}
