{
	"asset":{
		"generator":"Khronos glTF Blender I/O v3.6.27",
		"version":"2.0"
	},
	"scene":0,
	"scenes":[
		{
			"name":"Scene",
			"nodes":[
				23
			]
		}
	],
	"nodes":[
		{
			"mesh":0,
			"name":"pCube1",
			"scale":[
				1,
				1,
				0.21406076848506927
			],
			"translation":[
				-0.4960614740848541,
				0.5115627646446228,
				-0.09750528633594513
			]
		},
		{
			"mesh":1,
			"name":"pCube10",
			"rotation":[
				0,
				0,
				-0.30317217111587524,
				0.9529358148574829
			],
			"scale":[
				0.8735759258270264,
				0.8735759258270264,
				0.18699833750724792
			],
			"translation":[
				1.408373236656189,
				-2.9942734241485596,
				-0.09750527888536453
			]
		},
		{
			"mesh":2,
			"name":"pCube2",
			"rotation":[
				0,
				0,
				0.5329210758209229,
				0.8461650013923645
			],
			"scale":[
				1,
				1,
				0.21406076848506927
			],
			"translation":[
				-0.6097586750984192,
				-0.0036555316764861345,
				-0.09750528633594513
			]
		},
		{
			"mesh":3,
			"name":"pCube3",
			"rotation":[
				0,
				0,
				0.9349851012229919,
				0.35468700528144836
			],
			"scale":[
				1,
				1,
				0.21406076848506927
			],
			"translation":[
				-0.14477106928825378,
				-0.34825554490089417,
				-0.09750528633594513
			]
		},
		{
			"mesh":4,
			"name":"pCube4",
			"rotation":[
				0,
				0,
				-0.9504202604293823,
				0.31096839904785156
			],
			"scale":[
				1,
				1,
				0.21406076848506927
			],
			"translation":[
				0.24928875267505646,
				0.0742255300283432,
				-0.09750528633594513
			]
		},
		{
			"mesh":5,
			"name":"pCube5",
			"rotation":[
				0,
				0,
				-0.5926300287246704,
				0.8054748177528381
			],
			"scale":[
				1,
				1,
				0.21406076848506927
			],
			"translation":[
				0.05863777548074722,
				0.5531007051467896,
				-0.09750528633594513
			]
		},
		{
			"mesh":6,
			"name":"pCube6",
			"rotation":[
				0,
				0,
				-0.5926300287246704,
				0.8054748177528381
			],
			"scale":[
				0.8735758662223816,
				0.8735758662223816,
				0.18699833750724792
			],
			"translation":[
				1.427767276763916,
				1.4548712968826294,
				-0.09750527888536453
			]
		},
		{
			"mesh":7,
			"name":"pCube7",
			"rotation":[
				0,
				0,
				0.10818066447973251,
				0.9941312670707703
			],
			"scale":[
				0.8735758662223816,
				0.8735758662223816,
				0.18699833750724792
			],
			"translation":[
				-2.2982821464538574,
				-2.7111151218414307,
				-0.09750527888536453
			]
		},
		{
			"mesh":8,
			"name":"pCube8",
			"rotation":[
				0,
				0,
				-0.42417043447494507,
				0.9055823683738708
			],
			"scale":[
				0.8735759854316711,
				0.8735759854316711,
				0.18699833750724792
			],
			"translation":[
				-1.267763376235962,
				-2.4833099842071533,
				-0.09750527888536453
			]
		},
		{
			"mesh":9,
			"name":"pCube9",
			"rotation":[
				0,
				0,
				-0.010372128337621689,
				0.9999462366104126
			],
			"scale":[
				0.8735758066177368,
				0.8735758066177368,
				0.18699833750724792
			],
			"translation":[
				-3.1946423053741455,
				1.4576942920684814,
				-0.09750527888536453
			]
		},
		{
			"children":[
				0,
				1,
				2,
				3,
				4,
				5,
				6,
				7,
				8,
				9
			],
			"name":"group1"
		},
		{
			"mesh":10,
			"name":"pCube1.001",
			"scale":[
				1,
				1,
				0.21406076848506927
			],
			"translation":[
				-0.49606138467788696,
				0.511562705039978,
				-0.09750528633594513
			]
		},
		{
			"mesh":11,
			"name":"pCube2.001",
			"rotation":[
				0,
				0,
				0.5329210758209229,
				0.8461649417877197
			],
			"scale":[
				1,
				1,
				0.21406076848506927
			],
			"translation":[
				-0.6097585558891296,
				-0.003655500477179885,
				-0.09750529378652573
			]
		},
		{
			"mesh":12,
			"name":"pCube3.001",
			"rotation":[
				0,
				0,
				0.9349851012229919,
				0.35468700528144836
			],
			"scale":[
				1,
				1,
				0.21406076848506927
			],
			"translation":[
				-0.1447710394859314,
				-0.34825557470321655,
				-0.09750528633594513
			]
		},
		{
			"mesh":13,
			"name":"pCube4.001",
			"rotation":[
				0,
				0,
				-0.9504202604293823,
				0.31096842885017395
			],
			"scale":[
				1,
				1,
				0.21406076848506927
			],
			"translation":[
				0.24928894639015198,
				0.07422565668821335,
				-0.09750528633594513
			]
		},
		{
			"mesh":14,
			"name":"pCube5.001",
			"rotation":[
				0,
				0,
				-0.5926300287246704,
				0.8054748177528381
			],
			"scale":[
				1,
				1,
				0.21406076848506927
			],
			"translation":[
				0.058638062328100204,
				0.5531007647514343,
				-0.09750528633594513
			]
		},
		{
			"children":[
				11,
				12,
				13,
				14,
				15
			],
			"name":"group2",
			"rotation":[
				0,
				0,
				-0.17075319588184357,
				0.9853138327598572
			],
			"scale":[
				0.8915525078773499,
				0.8915525078773499,
				1
			],
			"translation":[
				2.014508008956909,
				-0.9274622797966003,
				0
			]
		},
		{
			"mesh":15,
			"name":"pCube1.002",
			"scale":[
				1,
				1,
				0.21406078338623047
			],
			"translation":[
				-0.4960613548755646,
				0.5115624070167542,
				-0.09750530123710632
			]
		},
		{
			"mesh":16,
			"name":"pCube2.002",
			"rotation":[
				0,
				0,
				0.5329210758209229,
				0.8461650013923645
			],
			"scale":[
				1,
				1,
				0.21406078338623047
			],
			"translation":[
				-0.6097586750984192,
				-0.0036556515842676163,
				-0.09750529378652573
			]
		},
		{
			"mesh":17,
			"name":"pCube3.002",
			"rotation":[
				0,
				0,
				0.9349851012229919,
				0.35468700528144836
			],
			"scale":[
				1,
				1,
				0.21406078338623047
			],
			"translation":[
				-0.1447708159685135,
				-0.34825563430786133,
				-0.09750529378652573
			]
		},
		{
			"mesh":18,
			"name":"pCube4.002",
			"rotation":[
				0,
				0,
				-0.9504202604293823,
				0.31096839904785156
			],
			"scale":[
				1,
				1,
				0.21406078338623047
			],
			"translation":[
				0.24928905069828033,
				0.07422543317079544,
				-0.09750528633594513
			]
		},
		{
			"mesh":19,
			"name":"pCube5.002",
			"rotation":[
				0,
				0,
				-0.5926299691200256,
				0.8054748177528381
			],
			"scale":[
				1,
				1,
				0.21406078338623047
			],
			"translation":[
				0.05863799899816513,
				0.5531005859375,
				-0.09750529378652573
			]
		},
		{
			"children":[
				17,
				18,
				19,
				20,
				21
			],
			"name":"group3",
			"rotation":[
				0,
				0,
				0.48753994703292847,
				0.8731006979942322
			],
			"scale":[
				0.6889203190803528,
				0.6889203190803528,
				1
			],
			"translation":[
				0.36382538080215454,
				3.3962652683258057,
				0
			]
		},
		{
			"children":[
				10,
				16,
				22
			],
			"name":"group4",
			"rotation":[
				0.7071067690849304,
				0,
				0,
				0.7071068286895752
			],
			"scale":[
				0.41011562943458557,
				0.41011562943458557,
				0.41011562943458557
			]
		}
	],
	"materials":[
		{
			"doubleSided":true,
			"name":"sakura",
			"pbrMetallicRoughness":{
				"baseColorFactor":[
					0.8000000715255737,
					0.2523331344127655,
					0.37341049313545227,
					1
				],
				"metallicFactor":0,
				"roughnessFactor":0.8661971688270569
			}
		}
	],
	"meshes":[
		{
			"name":"Mesh",
			"primitives":[
				{
					"attributes":{
						"POSITION":0,
						"NORMAL":1,
						"TEXCOORD_0":2
					},
					"indices":3,
					"material":0
				}
			]
		},
		{
			"name":"Mesh.009",
			"primitives":[
				{
					"attributes":{
						"POSITION":4,
						"NORMAL":5,
						"TEXCOORD_0":6
					},
					"indices":3,
					"material":0
				}
			]
		},
		{
			"name":"Mesh.003",
			"primitives":[
				{
					"attributes":{
						"POSITION":7,
						"NORMAL":8,
						"TEXCOORD_0":9
					},
					"indices":3,
					"material":0
				}
			]
		},
		{
			"name":"Mesh.002",
			"primitives":[
				{
					"attributes":{
						"POSITION":10,
						"NORMAL":11,
						"TEXCOORD_0":12
					},
					"indices":3,
					"material":0
				}
			]
		},
		{
			"name":"Mesh.001",
			"primitives":[
				{
					"attributes":{
						"POSITION":13,
						"NORMAL":14,
						"TEXCOORD_0":15
					},
					"indices":3,
					"material":0
				}
			]
		},
		{
			"name":"Mesh.004",
			"primitives":[
				{
					"attributes":{
						"POSITION":16,
						"NORMAL":17,
						"TEXCOORD_0":18
					},
					"indices":3,
					"material":0
				}
			]
		},
		{
			"name":"Mesh.005",
			"primitives":[
				{
					"attributes":{
						"POSITION":19,
						"NORMAL":20,
						"TEXCOORD_0":21
					},
					"indices":3,
					"material":0
				}
			]
		},
		{
			"name":"Mesh.006",
			"primitives":[
				{
					"attributes":{
						"POSITION":22,
						"NORMAL":23,
						"TEXCOORD_0":24
					},
					"indices":3,
					"material":0
				}
			]
		},
		{
			"name":"Mesh.007",
			"primitives":[
				{
					"attributes":{
						"POSITION":25,
						"NORMAL":26,
						"TEXCOORD_0":27
					},
					"indices":3,
					"material":0
				}
			]
		},
		{
			"name":"Mesh.008",
			"primitives":[
				{
					"attributes":{
						"POSITION":28,
						"NORMAL":29,
						"TEXCOORD_0":30
					},
					"indices":3,
					"material":0
				}
			]
		},
		{
			"name":"Mesh.010",
			"primitives":[
				{
					"attributes":{
						"POSITION":31,
						"NORMAL":32,
						"TEXCOORD_0":33
					},
					"indices":3,
					"material":0
				}
			]
		},
		{
			"name":"Mesh.013",
			"primitives":[
				{
					"attributes":{
						"POSITION":34,
						"NORMAL":35,
						"TEXCOORD_0":36
					},
					"indices":3,
					"material":0
				}
			]
		},
		{
			"name":"Mesh.012",
			"primitives":[
				{
					"attributes":{
						"POSITION":37,
						"NORMAL":38,
						"TEXCOORD_0":39
					},
					"indices":3,
					"material":0
				}
			]
		},
		{
			"name":"Mesh.011",
			"primitives":[
				{
					"attributes":{
						"POSITION":40,
						"NORMAL":41,
						"TEXCOORD_0":42
					},
					"indices":3,
					"material":0
				}
			]
		},
		{
			"name":"Mesh.014",
			"primitives":[
				{
					"attributes":{
						"POSITION":43,
						"NORMAL":44,
						"TEXCOORD_0":45
					},
					"indices":3,
					"material":0
				}
			]
		},
		{
			"name":"Mesh.015",
			"primitives":[
				{
					"attributes":{
						"POSITION":46,
						"NORMAL":47,
						"TEXCOORD_0":48
					},
					"indices":3,
					"material":0
				}
			]
		},
		{
			"name":"Mesh.018",
			"primitives":[
				{
					"attributes":{
						"POSITION":49,
						"NORMAL":50,
						"TEXCOORD_0":51
					},
					"indices":3,
					"material":0
				}
			]
		},
		{
			"name":"Mesh.017",
			"primitives":[
				{
					"attributes":{
						"POSITION":52,
						"NORMAL":53,
						"TEXCOORD_0":54
					},
					"indices":3,
					"material":0
				}
			]
		},
		{
			"name":"Mesh.016",
			"primitives":[
				{
					"attributes":{
						"POSITION":55,
						"NORMAL":56,
						"TEXCOORD_0":57
					},
					"indices":3,
					"material":0
				}
			]
		},
		{
			"name":"Mesh.019",
			"primitives":[
				{
					"attributes":{
						"POSITION":58,
						"NORMAL":59,
						"TEXCOORD_0":60
					},
					"indices":3,
					"material":0
				}
			]
		}
	],
	"accessors":[
		{
			"bufferView":0,
			"componentType":5126,
			"count":42,
			"max":[
				0.3559125065803528,
				0.4936107099056244,
				0.5
			],
			"min":[
				-0.5217577219009399,
				-0.35988178849220276,
				-0.5
			],
			"type":"VEC3"
		},
		{
			"bufferView":1,
			"componentType":5126,
			"count":42,
			"type":"VEC3"
		},
		{
			"bufferView":2,
			"componentType":5126,
			"count":42,
			"type":"VEC2"
		},
		{
			"bufferView":3,
			"componentType":5123,
			"count":96,
			"type":"SCALAR"
		},
		{
			"bufferView":4,
			"componentType":5126,
			"count":42,
			"max":[
				0.3559125065803528,
				0.4936107099056244,
				0.5
			],
			"min":[
				-0.5217577219009399,
				-0.35988178849220276,
				-0.5
			],
			"type":"VEC3"
		},
		{
			"bufferView":5,
			"componentType":5126,
			"count":42,
			"type":"VEC3"
		},
		{
			"bufferView":6,
			"componentType":5126,
			"count":42,
			"type":"VEC2"
		},
		{
			"bufferView":7,
			"componentType":5126,
			"count":42,
			"max":[
				0.3559125065803528,
				0.4936107099056244,
				0.5
			],
			"min":[
				-0.5217577219009399,
				-0.35988178849220276,
				-0.5
			],
			"type":"VEC3"
		},
		{
			"bufferView":8,
			"componentType":5126,
			"count":42,
			"type":"VEC3"
		},
		{
			"bufferView":9,
			"componentType":5126,
			"count":42,
			"type":"VEC2"
		},
		{
			"bufferView":10,
			"componentType":5126,
			"count":42,
			"max":[
				0.3559125065803528,
				0.4936107099056244,
				0.5
			],
			"min":[
				-0.5217577219009399,
				-0.35988178849220276,
				-0.5
			],
			"type":"VEC3"
		},
		{
			"bufferView":11,
			"componentType":5126,
			"count":42,
			"type":"VEC3"
		},
		{
			"bufferView":12,
			"componentType":5126,
			"count":42,
			"type":"VEC2"
		},
		{
			"bufferView":13,
			"componentType":5126,
			"count":42,
			"max":[
				0.3559125065803528,
				0.4936107099056244,
				0.5
			],
			"min":[
				-0.5217577219009399,
				-0.35988178849220276,
				-0.5
			],
			"type":"VEC3"
		},
		{
			"bufferView":14,
			"componentType":5126,
			"count":42,
			"type":"VEC3"
		},
		{
			"bufferView":15,
			"componentType":5126,
			"count":42,
			"type":"VEC2"
		},
		{
			"bufferView":16,
			"componentType":5126,
			"count":42,
			"max":[
				0.3559125065803528,
				0.4936107099056244,
				0.5
			],
			"min":[
				-0.5217577219009399,
				-0.35988178849220276,
				-0.5
			],
			"type":"VEC3"
		},
		{
			"bufferView":17,
			"componentType":5126,
			"count":42,
			"type":"VEC3"
		},
		{
			"bufferView":18,
			"componentType":5126,
			"count":42,
			"type":"VEC2"
		},
		{
			"bufferView":19,
			"componentType":5126,
			"count":42,
			"max":[
				0.3559125065803528,
				0.4936107099056244,
				0.5
			],
			"min":[
				-0.5217577219009399,
				-0.35988178849220276,
				-0.5
			],
			"type":"VEC3"
		},
		{
			"bufferView":20,
			"componentType":5126,
			"count":42,
			"type":"VEC3"
		},
		{
			"bufferView":21,
			"componentType":5126,
			"count":42,
			"type":"VEC2"
		},
		{
			"bufferView":22,
			"componentType":5126,
			"count":42,
			"max":[
				0.3559125065803528,
				0.4936107099056244,
				0.5
			],
			"min":[
				-0.5217577219009399,
				-0.35988178849220276,
				-0.5
			],
			"type":"VEC3"
		},
		{
			"bufferView":23,
			"componentType":5126,
			"count":42,
			"type":"VEC3"
		},
		{
			"bufferView":24,
			"componentType":5126,
			"count":42,
			"type":"VEC2"
		},
		{
			"bufferView":25,
			"componentType":5126,
			"count":42,
			"max":[
				0.3559125065803528,
				0.4936107099056244,
				0.5
			],
			"min":[
				-0.5217577219009399,
				-0.35988178849220276,
				-0.5
			],
			"type":"VEC3"
		},
		{
			"bufferView":26,
			"componentType":5126,
			"count":42,
			"type":"VEC3"
		},
		{
			"bufferView":27,
			"componentType":5126,
			"count":42,
			"type":"VEC2"
		},
		{
			"bufferView":28,
			"componentType":5126,
			"count":42,
			"max":[
				0.3559125065803528,
				0.4936107099056244,
				0.5
			],
			"min":[
				-0.5217577219009399,
				-0.35988178849220276,
				-0.5
			],
			"type":"VEC3"
		},
		{
			"bufferView":29,
			"componentType":5126,
			"count":42,
			"type":"VEC3"
		},
		{
			"bufferView":30,
			"componentType":5126,
			"count":42,
			"type":"VEC2"
		},
		{
			"bufferView":31,
			"componentType":5126,
			"count":42,
			"max":[
				0.3559125065803528,
				0.4936107099056244,
				0.5
			],
			"min":[
				-0.5217577219009399,
				-0.35988178849220276,
				-0.5
			],
			"type":"VEC3"
		},
		{
			"bufferView":32,
			"componentType":5126,
			"count":42,
			"type":"VEC3"
		},
		{
			"bufferView":33,
			"componentType":5126,
			"count":42,
			"type":"VEC2"
		},
		{
			"bufferView":34,
			"componentType":5126,
			"count":42,
			"max":[
				0.3559125065803528,
				0.4936107099056244,
				0.5
			],
			"min":[
				-0.5217577219009399,
				-0.35988178849220276,
				-0.5
			],
			"type":"VEC3"
		},
		{
			"bufferView":35,
			"componentType":5126,
			"count":42,
			"type":"VEC3"
		},
		{
			"bufferView":36,
			"componentType":5126,
			"count":42,
			"type":"VEC2"
		},
		{
			"bufferView":37,
			"componentType":5126,
			"count":42,
			"max":[
				0.3559125065803528,
				0.4936107099056244,
				0.5
			],
			"min":[
				-0.5217577219009399,
				-0.35988178849220276,
				-0.5
			],
			"type":"VEC3"
		},
		{
			"bufferView":38,
			"componentType":5126,
			"count":42,
			"type":"VEC3"
		},
		{
			"bufferView":39,
			"componentType":5126,
			"count":42,
			"type":"VEC2"
		},
		{
			"bufferView":40,
			"componentType":5126,
			"count":42,
			"max":[
				0.3559125065803528,
				0.4936107099056244,
				0.5
			],
			"min":[
				-0.5217577219009399,
				-0.35988178849220276,
				-0.5
			],
			"type":"VEC3"
		},
		{
			"bufferView":41,
			"componentType":5126,
			"count":42,
			"type":"VEC3"
		},
		{
			"bufferView":42,
			"componentType":5126,
			"count":42,
			"type":"VEC2"
		},
		{
			"bufferView":43,
			"componentType":5126,
			"count":42,
			"max":[
				0.3559125065803528,
				0.4936107099056244,
				0.5
			],
			"min":[
				-0.5217577219009399,
				-0.35988178849220276,
				-0.5
			],
			"type":"VEC3"
		},
		{
			"bufferView":44,
			"componentType":5126,
			"count":42,
			"type":"VEC3"
		},
		{
			"bufferView":45,
			"componentType":5126,
			"count":42,
			"type":"VEC2"
		},
		{
			"bufferView":46,
			"componentType":5126,
			"count":42,
			"max":[
				0.3559125065803528,
				0.4936107099056244,
				0.5
			],
			"min":[
				-0.5217577219009399,
				-0.35988178849220276,
				-0.5
			],
			"type":"VEC3"
		},
		{
			"bufferView":47,
			"componentType":5126,
			"count":42,
			"type":"VEC3"
		},
		{
			"bufferView":48,
			"componentType":5126,
			"count":42,
			"type":"VEC2"
		},
		{
			"bufferView":49,
			"componentType":5126,
			"count":42,
			"max":[
				0.3559125065803528,
				0.4936107099056244,
				0.5
			],
			"min":[
				-0.5217577219009399,
				-0.35988178849220276,
				-0.5
			],
			"type":"VEC3"
		},
		{
			"bufferView":50,
			"componentType":5126,
			"count":42,
			"type":"VEC3"
		},
		{
			"bufferView":51,
			"componentType":5126,
			"count":42,
			"type":"VEC2"
		},
		{
			"bufferView":52,
			"componentType":5126,
			"count":42,
			"max":[
				0.3559125065803528,
				0.4936107099056244,
				0.5
			],
			"min":[
				-0.5217577219009399,
				-0.35988178849220276,
				-0.5
			],
			"type":"VEC3"
		},
		{
			"bufferView":53,
			"componentType":5126,
			"count":42,
			"type":"VEC3"
		},
		{
			"bufferView":54,
			"componentType":5126,
			"count":42,
			"type":"VEC2"
		},
		{
			"bufferView":55,
			"componentType":5126,
			"count":42,
			"max":[
				0.3559125065803528,
				0.4936107099056244,
				0.5
			],
			"min":[
				-0.5217577219009399,
				-0.35988178849220276,
				-0.5
			],
			"type":"VEC3"
		},
		{
			"bufferView":56,
			"componentType":5126,
			"count":42,
			"type":"VEC3"
		},
		{
			"bufferView":57,
			"componentType":5126,
			"count":42,
			"type":"VEC2"
		},
		{
			"bufferView":58,
			"componentType":5126,
			"count":42,
			"max":[
				0.3559125065803528,
				0.4936107099056244,
				0.5
			],
			"min":[
				-0.5217577219009399,
				-0.35988178849220276,
				-0.5
			],
			"type":"VEC3"
		},
		{
			"bufferView":59,
			"componentType":5126,
			"count":42,
			"type":"VEC3"
		},
		{
			"bufferView":60,
			"componentType":5126,
			"count":42,
			"type":"VEC2"
		}
	],
	"bufferViews":[
		{
			"buffer":0,
			"byteLength":504,
			"byteOffset":0,
			"target":34962
		},
		{
			"buffer":0,
			"byteLength":504,
			"byteOffset":504,
			"target":34962
		},
		{
			"buffer":0,
			"byteLength":336,
			"byteOffset":1008,
			"target":34962
		},
		{
			"buffer":0,
			"byteLength":192,
			"byteOffset":1344,
			"target":34963
		},
		{
			"buffer":0,
			"byteLength":504,
			"byteOffset":1536,
			"target":34962
		},
		{
			"buffer":0,
			"byteLength":504,
			"byteOffset":2040,
			"target":34962
		},
		{
			"buffer":0,
			"byteLength":336,
			"byteOffset":2544,
			"target":34962
		},
		{
			"buffer":0,
			"byteLength":504,
			"byteOffset":2880,
			"target":34962
		},
		{
			"buffer":0,
			"byteLength":504,
			"byteOffset":3384,
			"target":34962
		},
		{
			"buffer":0,
			"byteLength":336,
			"byteOffset":3888,
			"target":34962
		},
		{
			"buffer":0,
			"byteLength":504,
			"byteOffset":4224,
			"target":34962
		},
		{
			"buffer":0,
			"byteLength":504,
			"byteOffset":4728,
			"target":34962
		},
		{
			"buffer":0,
			"byteLength":336,
			"byteOffset":5232,
			"target":34962
		},
		{
			"buffer":0,
			"byteLength":504,
			"byteOffset":5568,
			"target":34962
		},
		{
			"buffer":0,
			"byteLength":504,
			"byteOffset":6072,
			"target":34962
		},
		{
			"buffer":0,
			"byteLength":336,
			"byteOffset":6576,
			"target":34962
		},
		{
			"buffer":0,
			"byteLength":504,
			"byteOffset":6912,
			"target":34962
		},
		{
			"buffer":0,
			"byteLength":504,
			"byteOffset":7416,
			"target":34962
		},
		{
			"buffer":0,
			"byteLength":336,
			"byteOffset":7920,
			"target":34962
		},
		{
			"buffer":0,
			"byteLength":504,
			"byteOffset":8256,
			"target":34962
		},
		{
			"buffer":0,
			"byteLength":504,
			"byteOffset":8760,
			"target":34962
		},
		{
			"buffer":0,
			"byteLength":336,
			"byteOffset":9264,
			"target":34962
		},
		{
			"buffer":0,
			"byteLength":504,
			"byteOffset":9600,
			"target":34962
		},
		{
			"buffer":0,
			"byteLength":504,
			"byteOffset":10104,
			"target":34962
		},
		{
			"buffer":0,
			"byteLength":336,
			"byteOffset":10608,
			"target":34962
		},
		{
			"buffer":0,
			"byteLength":504,
			"byteOffset":10944,
			"target":34962
		},
		{
			"buffer":0,
			"byteLength":504,
			"byteOffset":11448,
			"target":34962
		},
		{
			"buffer":0,
			"byteLength":336,
			"byteOffset":11952,
			"target":34962
		},
		{
			"buffer":0,
			"byteLength":504,
			"byteOffset":12288,
			"target":34962
		},
		{
			"buffer":0,
			"byteLength":504,
			"byteOffset":12792,
			"target":34962
		},
		{
			"buffer":0,
			"byteLength":336,
			"byteOffset":13296,
			"target":34962
		},
		{
			"buffer":0,
			"byteLength":504,
			"byteOffset":13632,
			"target":34962
		},
		{
			"buffer":0,
			"byteLength":504,
			"byteOffset":14136,
			"target":34962
		},
		{
			"buffer":0,
			"byteLength":336,
			"byteOffset":14640,
			"target":34962
		},
		{
			"buffer":0,
			"byteLength":504,
			"byteOffset":14976,
			"target":34962
		},
		{
			"buffer":0,
			"byteLength":504,
			"byteOffset":15480,
			"target":34962
		},
		{
			"buffer":0,
			"byteLength":336,
			"byteOffset":15984,
			"target":34962
		},
		{
			"buffer":0,
			"byteLength":504,
			"byteOffset":16320,
			"target":34962
		},
		{
			"buffer":0,
			"byteLength":504,
			"byteOffset":16824,
			"target":34962
		},
		{
			"buffer":0,
			"byteLength":336,
			"byteOffset":17328,
			"target":34962
		},
		{
			"buffer":0,
			"byteLength":504,
			"byteOffset":17664,
			"target":34962
		},
		{
			"buffer":0,
			"byteLength":504,
			"byteOffset":18168,
			"target":34962
		},
		{
			"buffer":0,
			"byteLength":336,
			"byteOffset":18672,
			"target":34962
		},
		{
			"buffer":0,
			"byteLength":504,
			"byteOffset":19008,
			"target":34962
		},
		{
			"buffer":0,
			"byteLength":504,
			"byteOffset":19512,
			"target":34962
		},
		{
			"buffer":0,
			"byteLength":336,
			"byteOffset":20016,
			"target":34962
		},
		{
			"buffer":0,
			"byteLength":504,
			"byteOffset":20352,
			"target":34962
		},
		{
			"buffer":0,
			"byteLength":504,
			"byteOffset":20856,
			"target":34962
		},
		{
			"buffer":0,
			"byteLength":336,
			"byteOffset":21360,
			"target":34962
		},
		{
			"buffer":0,
			"byteLength":504,
			"byteOffset":21696,
			"target":34962
		},
		{
			"buffer":0,
			"byteLength":504,
			"byteOffset":22200,
			"target":34962
		},
		{
			"buffer":0,
			"byteLength":336,
			"byteOffset":22704,
			"target":34962
		},
		{
			"buffer":0,
			"byteLength":504,
			"byteOffset":23040,
			"target":34962
		},
		{
			"buffer":0,
			"byteLength":504,
			"byteOffset":23544,
			"target":34962
		},
		{
			"buffer":0,
			"byteLength":336,
			"byteOffset":24048,
			"target":34962
		},
		{
			"buffer":0,
			"byteLength":504,
			"byteOffset":24384,
			"target":34962
		},
		{
			"buffer":0,
			"byteLength":504,
			"byteOffset":24888,
			"target":34962
		},
		{
			"buffer":0,
			"byteLength":336,
			"byteOffset":25392,
			"target":34962
		},
		{
			"buffer":0,
			"byteLength":504,
			"byteOffset":25728,
			"target":34962
		},
		{
			"buffer":0,
			"byteLength":504,
			"byteOffset":26232,
			"target":34962
		},
		{
			"buffer":0,
			"byteLength":336,
			"byteOffset":26736,
			"target":34962
		}
	],
	"buffers":[
		{
			"byteLength":27072,
			"uri":"data:application/octet-stream;base64,"
		}
	]
}
