{
    "asset": {
        "generator": "Khronos glTF Blender I/O v3.6.27",
        "version": "2.0"
    },
    "extensionsUsed": ["KHR_materials_specular", "KHR_materials_ior"],
    "scene": 0,
    "scenes": [
        {
            "name": "Scene",
            "nodes": [2]
        }
    ],
    "nodes": [
        {
            "mesh": 0,
            "name": "pCube1",
            "scale": [
                3.3499135971069336, 3.3499135971069336, 3.3499135971069336
            ],
            "translation": [0, 0, -1.495021939277649]
        },
        {
            "mesh": 1,
            "name": "pCube2",
            "rotation": [0, 0, 0.6363964676856995, 0.7713621258735657],
            "scale": [1.48276686668396, 1.48276686668396, 1.48276686668396],
            "translation": [
                2.6411614418029785, -1.5580754280090332, -0.5556279420852661
            ]
        },
        {
            "children": [0, 1],
            "name": "group1",
            "rotation": [0.7071068286895752, 0, 0, 0.7071068286895752],
            "scale": [
                0.5615173578262329, 0.5615173578262329, 0.5615173578262329
            ]
        }
    ],
    "materials": [
        {
            "doubleSided": true,
            "extensions": {
                "KHR_materials_specular": {
                    "specularColorFactor": [
                        2.1431284427540667, 2.1431284427540667,
                        2.1431284427540667
                    ]
                },
                "KHR_materials_ior": {
                    "ior": 1.4500000476837158
                }
            },
            "name": "rock",
            "pbrMetallicRoughness": {
                "baseColorFactor": [
                    0.09541863948106766, 0.13390810787677765,
                    0.1375862956047058, 1
                ],
                "metallicFactor": 0,
                "roughnessFactor": 0.5
            }
        },
        {
            "doubleSided": true,
            "name": "rock2",
            "pbrMetallicRoughness": {
                "baseColorFactor": [
                    0.10355997830629349, 0.12137927860021591,
                    0.12824136018753052, 1
                ],
                "metallicFactor": 0,
                "roughnessFactor": 0.7910798192024231
            }
        }
    ],
    "meshes": [
        {
            "name": "Mesh",
            "primitives": [
                {
                    "attributes": {
                        "POSITION": 0,
                        "NORMAL": 1,
                        "TEXCOORD_0": 2
                    },
                    "indices": 3,
                    "material": 0
                }
            ]
        },
        {
            "name": "Mesh.001",
            "primitives": [
                {
                    "attributes": {
                        "POSITION": 4,
                        "NORMAL": 5,
                        "TEXCOORD_0": 6
                    },
                    "indices": 7,
                    "material": 1
                }
            ]
        }
    ],
    "accessors": [
        {
            "bufferView": 0,
            "componentType": 5126,
            "count": 54,
            "max": [0.7269940376281738, 0.5989480018615723, 0.5],
            "min": [
                -0.8764064311981201, -0.6975419521331787, -0.6307486891746521
            ],
            "type": "VEC3"
        },
        {
            "bufferView": 1,
            "componentType": 5126,
            "count": 54,
            "type": "VEC3"
        },
        {
            "bufferView": 2,
            "componentType": 5126,
            "count": 54,
            "type": "VEC2"
        },
        {
            "bufferView": 3,
            "componentType": 5123,
            "count": 144,
            "type": "SCALAR"
        },
        {
            "bufferView": 4,
            "componentType": 5126,
            "count": 54,
            "max": [0.7250906825065613, 0.5989480018615723, 0.5],
            "min": [
                -0.8764064311981201, -0.6975419521331787, -0.5148981213569641
            ],
            "type": "VEC3"
        },
        {
            "bufferView": 5,
            "componentType": 5126,
            "count": 54,
            "type": "VEC3"
        },
        {
            "bufferView": 6,
            "componentType": 5126,
            "count": 54,
            "type": "VEC2"
        },
        {
            "bufferView": 7,
            "componentType": 5123,
            "count": 144,
            "type": "SCALAR"
        }
    ],
    "bufferViews": [
        {
            "buffer": 0,
            "byteLength": 648,
            "byteOffset": 0,
            "target": 34962
        },
        {
            "buffer": 0,
            "byteLength": 648,
            "byteOffset": 648,
            "target": 34962
        },
        {
            "buffer": 0,
            "byteLength": 432,
            "byteOffset": 1296,
            "target": 34962
        },
        {
            "buffer": 0,
            "byteLength": 288,
            "byteOffset": 1728,
            "target": 34963
        },
        {
            "buffer": 0,
            "byteLength": 648,
            "byteOffset": 2016,
            "target": 34962
        },
        {
            "buffer": 0,
            "byteLength": 648,
            "byteOffset": 2664,
            "target": 34962
        },
        {
            "buffer": 0,
            "byteLength": 432,
            "byteOffset": 3312,
            "target": 34962
        },
        {
            "buffer": 0,
            "byteLength": 288,
            "byteOffset": 3744,
            "target": 34963
        }
    ],
    "buffers": [
        {
            "byteLength": 4032,
            "uri": "data:application/octet-stream;base64,"
        }
    ]
}
