{
	"asset":{
		"generator":"Khronos glTF Blender I/O v3.6.27",
		"version":"2.0"
	},
	"scene":0,
	"scenes":[
		{
			"name":"Scene",
			"nodes":[
				4
			]
		}
	],
	"nodes":[
		{
			"mesh":0,
			"name":"pCube1",
			"scale":[
				3.104357957839966,
				3.104358196258545,
				3.104357957839966
			],
			"translation":[
				0,
				0,
				-1.5371642112731934
			]
		},
		{
			"mesh":1,
			"name":"pCube2",
			"scale":[
				2.4025886058807373,
				2.4025888442993164,
				10.94192886352539
			],
			"translation":[
				0,
				0,
				-6.895558834075928
			]
		},
		{
			"mesh":2,
			"name":"pCube3",
			"scale":[
				3.104357957839966,
				3.104358196258545,
				1.3574693202972412
			],
			"translation":[
				0,
				0,
				-12.550481796264648
			]
		},
		{
			"mesh":3,
			"name":"pCube4",
			"scale":[
				3.8809802532196045,
				3.8809804916381836,
				0.9895221590995789
			],
			"translation":[
				0,
				0,
				-2.2256786823272705
			]
		},
		{
			"children":[
				0,
				1,
				2,
				3
			],
			"name":"group1",
			"rotation":[
				0.6493250727653503,
				0.014897256158292294,
				-0.09498560428619385,
				0.7544090747833252
			],
			"scale":[
				0.6294123530387878,
				0.6294123530387878,
				0.6294125318527222
			],
			"translation":[
				0,
				-0.20552794635295868,
				0
			]
		}
	],
	"materials":[
		{
			"doubleSided":true,
			"name":"ruins",
			"pbrMetallicRoughness":{
				"baseColorFactor":[
					0.8140488266944885,
					0.5715170502662659,
					0.42627495527267456,
					1
				],
				"metallicFactor":0,
				"roughnessFactor":0.8474178314208984
			}
		}
	],
	"meshes":[
		{
			"name":"Mesh",
			"primitives":[
				{
					"attributes":{
						"POSITION":0,
						"NORMAL":1,
						"TEXCOORD_0":2
					},
					"indices":3,
					"material":0
				}
			]
		},
		{
			"name":"Mesh.001",
			"primitives":[
				{
					"attributes":{
						"POSITION":4,
						"NORMAL":5,
						"TEXCOORD_0":6
					},
					"indices":7,
					"material":0
				}
			]
		},
		{
			"name":"Mesh.002",
			"primitives":[
				{
					"attributes":{
						"POSITION":8,
						"NORMAL":9,
						"TEXCOORD_0":10
					},
					"indices":3,
					"material":0
				}
			]
		},
		{
			"name":"Mesh.003",
			"primitives":[
				{
					"attributes":{
						"POSITION":11,
						"NORMAL":12,
						"TEXCOORD_0":13
					},
					"indices":3,
					"material":0
				}
			]
		}
	],
	"accessors":[
		{
			"bufferView":0,
			"componentType":5126,
			"count":54,
			"max":[
				0.5,
				0.5,
				0.5
			],
			"min":[
				-0.5,
				-0.5,
				-0.5
			],
			"type":"VEC3"
		},
		{
			"bufferView":1,
			"componentType":5126,
			"count":54,
			"type":"VEC3"
		},
		{
			"bufferView":2,
			"componentType":5126,
			"count":54,
			"type":"VEC2"
		},
		{
			"bufferView":3,
			"componentType":5123,
			"count":144,
			"type":"SCALAR"
		},
		{
			"bufferView":4,
			"componentType":5126,
			"count":536,
			"max":[
				0.5,
				0.5,
				0.5
			],
			"min":[
				-0.5,
				-0.5,
				-0.4999999403953552
			],
			"type":"VEC3"
		},
		{
			"bufferView":5,
			"componentType":5126,
			"count":536,
			"type":"VEC3"
		},
		{
			"bufferView":6,
			"componentType":5126,
			"count":536,
			"type":"VEC2"
		},
		{
			"bufferView":7,
			"componentType":5123,
			"count":1356,
			"type":"SCALAR"
		},
		{
			"bufferView":8,
			"componentType":5126,
			"count":54,
			"max":[
				0.5,
				0.5,
				0.5
			],
			"min":[
				-0.5,
				-0.5,
				-0.5
			],
			"type":"VEC3"
		},
		{
			"bufferView":9,
			"componentType":5126,
			"count":54,
			"type":"VEC3"
		},
		{
			"bufferView":10,
			"componentType":5126,
			"count":54,
			"type":"VEC2"
		},
		{
			"bufferView":11,
			"componentType":5126,
			"count":54,
			"max":[
				0.5,
				0.5,
				0.5
			],
			"min":[
				-0.5,
				-0.5,
				-0.5
			],
			"type":"VEC3"
		},
		{
			"bufferView":12,
			"componentType":5126,
			"count":54,
			"type":"VEC3"
		},
		{
			"bufferView":13,
			"componentType":5126,
			"count":54,
			"type":"VEC2"
		}
	],
	"bufferViews":[
		{
			"buffer":0,
			"byteLength":648,
			"byteOffset":0,
			"target":34962
		},
		{
			"buffer":0,
			"byteLength":648,
			"byteOffset":648,
			"target":34962
		},
		{
			"buffer":0,
			"byteLength":432,
			"byteOffset":1296,
			"target":34962
		},
		{
			"buffer":0,
			"byteLength":288,
			"byteOffset":1728,
			"target":34963
		},
		{
			"buffer":0,
			"byteLength":6432,
			"byteOffset":2016,
			"target":34962
		},
		{
			"buffer":0,
			"byteLength":6432,
			"byteOffset":8448,
			"target":34962
		},
		{
			"buffer":0,
			"byteLength":4288,
			"byteOffset":14880,
			"target":34962
		},
		{
			"buffer":0,
			"byteLength":2712,
			"byteOffset":19168,
			"target":34963
		},
		{
			"buffer":0,
			"byteLength":648,
			"byteOffset":21880,
			"target":34962
		},
		{
			"buffer":0,
			"byteLength":648,
			"byteOffset":22528,
			"target":34962
		},
		{
			"buffer":0,
			"byteLength":432,
			"byteOffset":23176,
			"target":34962
		},
		{
			"buffer":0,
			"byteLength":648,
			"byteOffset":23608,
			"target":34962
		},
		{
			"buffer":0,
			"byteLength":648,
			"byteOffset":24256,
			"target":34962
		},
		{
			"buffer":0,
			"byteLength":432,
			"byteOffset":24904,
			"target":34962
		}
	],
	"buffers":[
		{
			"byteLength":25336,
			"uri":"data:application/octet-stream;base64,"
		}
	]
}
