{
	"asset":{
		"generator":"Khronos glTF Blender I/O v3.6.27",
		"version":"2.0"
	},
	"scene":0,
	"scenes":[
		{
			"name":"Scene",
			"nodes":[
				3
			]
		}
	],
	"nodes":[
		{
			"mesh":0,
			"name":"pCube1"
		},
		{
			"mesh":1,
			"name":"pCube2",
			"rotation":[
				-0.033743880689144135,
				0.09628668427467346,
				-0.012709704227745533,
				0.9947003722190857
			],
			"scale":[
				4.683951377868652,
				4.683953285217285,
				2.254770517349243
			],
			"translation":[
				-0.6880635023117065,
				0.3903176486492157,
				-6.231027603149414
			]
		},
		{
			"mesh":2,
			"name":"pCube3",
			"rotation":[
				-0.07757069915533066,
				-0.07579740881919861,
				0.1704646646976471,
				0.979377031326294
			],
			"scale":[
				1.7973296642303467,
				1.7973296642303467,
				1.477579116821289
			],
			"translation":[
				0.6670764684677124,
				-1.825547218322754,
				-4.28599214553833
			]
		},
		{
			"children":[
				0,
				1,
				2
			],
			"name":"tree",
			"rotation":[
				0.7071068286895752,
				0,
				0,
				0.7071068286895752
			],
			"scale":[
				0.8976638913154602,
				0.8976638913154602,
				0.8976638913154602
			],
			"translation":[
				0,
				0.4218009412288666,
				0
			]
		}
	],
	"materials":[
		{
			"doubleSided":true,
			"name":"Material.002",
			"pbrMetallicRoughness":{
				"baseColorFactor":[
					0.12823867797851562,
					0.06901893764734268,
					0.05114239826798439,
					1
				],
				"metallicFactor":0,
				"roughnessFactor":0.8474178314208984
			}
		},
		{
			"doubleSided":true,
			"name":"sakura",
			"pbrMetallicRoughness":{
				"baseColorFactor":[
					0.8000000715255737,
					0.2764134109020233,
					0.4038628935813904,
					1
				],
				"metallicFactor":0,
				"roughnessFactor":0.7910798192024231
			}
		}
	],
	"meshes":[
		{
			"name":"Mesh",
			"primitives":[
				{
					"attributes":{
						"POSITION":0,
						"NORMAL":1,
						"TEXCOORD_0":2
					},
					"indices":3,
					"material":0
				}
			]
		},
		{
			"name":"Mesh.001",
			"primitives":[
				{
					"attributes":{
						"POSITION":4,
						"NORMAL":5,
						"TEXCOORD_0":6
					},
					"indices":7,
					"material":1
				}
			]
		},
		{
			"name":"Mesh.002",
			"primitives":[
				{
					"attributes":{
						"POSITION":8,
						"NORMAL":9,
						"TEXCOORD_0":10
					},
					"indices":11,
					"material":1
				}
			]
		}
	],
	"accessors":[
		{
			"bufferView":0,
			"componentType":5126,
			"count":359,
			"max":[
				0.6713725328445435,
				0.981241762638092,
				0.5
			],
			"min":[
				-1.8134747743606567,
				-1.9518160820007324,
				-5.358917713165283
			],
			"type":"VEC3"
		},
		{
			"bufferView":1,
			"componentType":5126,
			"count":359,
			"type":"VEC3"
		},
		{
			"bufferView":2,
			"componentType":5126,
			"count":359,
			"type":"VEC2"
		},
		{
			"bufferView":3,
			"componentType":5123,
			"count":600,
			"type":"SCALAR"
		},
		{
			"bufferView":4,
			"componentType":5126,
			"count":54,
			"max":[
				0.6549283862113953,
				0.6193938255310059,
				0.4955309331417084
			],
			"min":[
				-0.7520981431007385,
				-0.6422373056411743,
				-1.4458274841308594
			],
			"type":"VEC3"
		},
		{
			"bufferView":5,
			"componentType":5126,
			"count":54,
			"type":"VEC3"
		},
		{
			"bufferView":6,
			"componentType":5126,
			"count":54,
			"type":"VEC2"
		},
		{
			"bufferView":7,
			"componentType":5123,
			"count":144,
			"type":"SCALAR"
		},
		{
			"bufferView":8,
			"componentType":5126,
			"count":54,
			"max":[
				0.654072642326355,
				0.6184858083724976,
				0.5527617931365967
			],
			"min":[
				-0.9292867183685303,
				-0.6279572248458862,
				-0.6141932010650635
			],
			"type":"VEC3"
		},
		{
			"bufferView":9,
			"componentType":5126,
			"count":54,
			"type":"VEC3"
		},
		{
			"bufferView":10,
			"componentType":5126,
			"count":54,
			"type":"VEC2"
		},
		{
			"bufferView":11,
			"componentType":5123,
			"count":144,
			"type":"SCALAR"
		}
	],
	"bufferViews":[
		{
			"buffer":0,
			"byteLength":4308,
			"byteOffset":0,
			"target":34962
		},
		{
			"buffer":0,
			"byteLength":4308,
			"byteOffset":4308,
			"target":34962
		},
		{
			"buffer":0,
			"byteLength":2872,
			"byteOffset":8616,
			"target":34962
		},
		{
			"buffer":0,
			"byteLength":1200,
			"byteOffset":11488,
			"target":34963
		},
		{
			"buffer":0,
			"byteLength":648,
			"byteOffset":12688,
			"target":34962
		},
		{
			"buffer":0,
			"byteLength":648,
			"byteOffset":13336,
			"target":34962
		},
		{
			"buffer":0,
			"byteLength":432,
			"byteOffset":13984,
			"target":34962
		},
		{
			"buffer":0,
			"byteLength":288,
			"byteOffset":14416,
			"target":34963
		},
		{
			"buffer":0,
			"byteLength":648,
			"byteOffset":14704,
			"target":34962
		},
		{
			"buffer":0,
			"byteLength":648,
			"byteOffset":15352,
			"target":34962
		},
		{
			"buffer":0,
			"byteLength":432,
			"byteOffset":16000,
			"target":34962
		},
		{
			"buffer":0,
			"byteLength":288,
			"byteOffset":16432,
			"target":34963
		}
	],
	"buffers":[
		{
			"byteLength":16720,
			"uri":"data:application/octet-stream;base64,"
		}
	]
}
