{
	"asset":{
		"generator":"Khronos glTF Blender I/O v3.6.27",
		"version":"2.0"
	},
	"scene":0,
	"scenes":[
		{
			"name":"Scene",
			"nodes":[
				4
			]
		}
	],
	"nodes":[
		{
			"mesh":0,
			"name":"pCube1",
			"scale":[
				1,
				1,
				2.3527355194091797
			],
			"translation":[
				0,
				0,
				-1.2220451831817627
			]
		},
		{
			"mesh":1,
			"name":"pCube2",
			"scale":[
				2.6885528564453125,
				2.6885528564453125,
				2.6885528564453125
			],
			"translation":[
				0,
				0,
				-3.5843679904937744
			]
		},
		{
			"mesh":2,
			"name":"pCube3",
			"scale":[
				2.465934991836548,
				2.465934991836548,
				2.465934991836548
			],
			"translation":[
				0,
				0,
				-5.208834171295166
			]
		},
		{
			"mesh":3,
			"name":"pCube4",
			"scale":[
				1.7592253684997559,
				1.7592253684997559,
				1.7592253684997559
			],
			"translation":[
				0,
				0,
				-6.4214186668396
			]
		},
		{
			"children":[
				0,
				1,
				2,
				3
			],
			"name":"group1",
			"rotation":[
				0.7071068286895752,
				0,
				0,
				0.7071068286895752
			],
			"scale":[
				1.3539886474609375,
				1.3539886474609375,
				1.3539886474609375
			]
		}
	],
	"materials":[
		{
			"doubleSided":true,
			"name":"Trunk",
			"pbrMetallicRoughness":{
				"baseColorFactor":[
					0.05221918970346451,
					0.026837030425667763,
					0.013761909678578377,
					1
				],
				"metallicFactor":0,
				"roughnessFactor":0.7910798192024231
			}
		},
		{
			"doubleSided":true,
			"name":"leaves",
			"pbrMetallicRoughness":{
				"baseColorFactor":[
					0.02466515265405178,
					0.09083988517522812,
					0.02836986817419529,
					1
				],
				"metallicFactor":0,
				"roughnessFactor":0.8849765062332153
			}
		},
		{
			"doubleSided":true,
			"name":"Snow",
			"pbrMetallicRoughness":{
				"baseColorFactor":[
					0.6962789297103882,
					0.8000000715255737,
					0.7530409097671509,
					1
				],
				"metallicFactor":0,
				"roughnessFactor":0.762910783290863
			}
		}
	],
	"meshes":[
		{
			"name":"Mesh",
			"primitives":[
				{
					"attributes":{
						"POSITION":0,
						"NORMAL":1,
						"TEXCOORD_0":2
					},
					"indices":3,
					"material":0
				}
			]
		},
		{
			"name":"Mesh.001",
			"primitives":[
				{
					"attributes":{
						"POSITION":4,
						"NORMAL":5,
						"TEXCOORD_0":6
					},
					"indices":7,
					"material":1
				},
				{
					"attributes":{
						"POSITION":8,
						"NORMAL":9,
						"TEXCOORD_0":10
					},
					"indices":11,
					"material":2
				}
			]
		},
		{
			"name":"Mesh.002",
			"primitives":[
				{
					"attributes":{
						"POSITION":12,
						"NORMAL":13,
						"TEXCOORD_0":14
					},
					"indices":7,
					"material":1
				},
				{
					"attributes":{
						"POSITION":15,
						"NORMAL":16,
						"TEXCOORD_0":17
					},
					"indices":11,
					"material":2
				}
			]
		},
		{
			"name":"Mesh.003",
			"primitives":[
				{
					"attributes":{
						"POSITION":18,
						"NORMAL":19,
						"TEXCOORD_0":20
					},
					"indices":7,
					"material":1
				},
				{
					"attributes":{
						"POSITION":21,
						"NORMAL":22,
						"TEXCOORD_0":23
					},
					"indices":24,
					"material":2
				}
			]
		}
	],
	"accessors":[
		{
			"bufferView":0,
			"componentType":5126,
			"count":54,
			"max":[
				0.5,
				0.5,
				0.5
			],
			"min":[
				-0.5,
				-0.5,
				-0.5
			],
			"type":"VEC3"
		},
		{
			"bufferView":1,
			"componentType":5126,
			"count":54,
			"type":"VEC3"
		},
		{
			"bufferView":2,
			"componentType":5126,
			"count":54,
			"type":"VEC2"
		},
		{
			"bufferView":3,
			"componentType":5123,
			"count":144,
			"type":"SCALAR"
		},
		{
			"bufferView":4,
			"componentType":5126,
			"count":33,
			"max":[
				0.7732682824134827,
				0.7548145055770874,
				0.7163490653038025
			],
			"min":[
				-0.7732682824134827,
				-0.7548145055770874,
				0.4108414649963379
			],
			"type":"VEC3"
		},
		{
			"bufferView":5,
			"componentType":5126,
			"count":33,
			"type":"VEC3"
		},
		{
			"bufferView":6,
			"componentType":5126,
			"count":33,
			"type":"VEC2"
		},
		{
			"bufferView":7,
			"componentType":5123,
			"count":72,
			"type":"SCALAR"
		},
		{
			"bufferView":8,
			"componentType":5126,
			"count":45,
			"max":[
				0.7377769351005554,
				0.7201701402664185,
				0.4108414649963379
			],
			"min":[
				-0.7377769351005554,
				-0.7201701402664185,
				-0.4382691979408264
			],
			"type":"VEC3"
		},
		{
			"bufferView":9,
			"componentType":5126,
			"count":45,
			"type":"VEC3"
		},
		{
			"bufferView":10,
			"componentType":5126,
			"count":45,
			"type":"VEC2"
		},
		{
			"bufferView":11,
			"componentType":5123,
			"count":120,
			"type":"SCALAR"
		},
		{
			"bufferView":12,
			"componentType":5126,
			"count":33,
			"max":[
				0.7732682824134827,
				0.7548145055770874,
				0.684734582901001
			],
			"min":[
				-0.7732682824134827,
				-0.7548145055770874,
				0.40721938014030457
			],
			"type":"VEC3"
		},
		{
			"bufferView":13,
			"componentType":5126,
			"count":33,
			"type":"VEC3"
		},
		{
			"bufferView":14,
			"componentType":5126,
			"count":33,
			"type":"VEC2"
		},
		{
			"bufferView":15,
			"componentType":5126,
			"count":45,
			"max":[
				0.7271062135696411,
				0.7097541093826294,
				0.40721938014030457
			],
			"min":[
				-0.7271062135696411,
				-0.7097541093826294,
				-0.2584556043148041
			],
			"type":"VEC3"
		},
		{
			"bufferView":16,
			"componentType":5126,
			"count":45,
			"type":"VEC3"
		},
		{
			"bufferView":17,
			"componentType":5126,
			"count":45,
			"type":"VEC2"
		},
		{
			"bufferView":18,
			"componentType":5126,
			"count":33,
			"max":[
				0.7732682824134827,
				0.7548145055770874,
				0.684734582901001
			],
			"min":[
				-0.7732682824134827,
				-0.7548145055770874,
				0.4035334587097168
			],
			"type":"VEC3"
		},
		{
			"bufferView":19,
			"componentType":5126,
			"count":33,
			"type":"VEC3"
		},
		{
			"bufferView":20,
			"componentType":5126,
			"count":33,
			"type":"VEC2"
		},
		{
			"bufferView":21,
			"componentType":5126,
			"count":45,
			"max":[
				0.7252722978591919,
				0.7079639434814453,
				0.4035334587097168
			],
			"min":[
				-0.7252722978591919,
				-0.7079639434814453,
				-0.5244516134262085
			],
			"type":"VEC3"
		},
		{
			"bufferView":22,
			"componentType":5126,
			"count":45,
			"type":"VEC3"
		},
		{
			"bufferView":23,
			"componentType":5126,
			"count":45,
			"type":"VEC2"
		},
		{
			"bufferView":24,
			"componentType":5123,
			"count":120,
			"type":"SCALAR"
		}
	],
	"bufferViews":[
		{
			"buffer":0,
			"byteLength":648,
			"byteOffset":0,
			"target":34962
		},
		{
			"buffer":0,
			"byteLength":648,
			"byteOffset":648,
			"target":34962
		},
		{
			"buffer":0,
			"byteLength":432,
			"byteOffset":1296,
			"target":34962
		},
		{
			"buffer":0,
			"byteLength":288,
			"byteOffset":1728,
			"target":34963
		},
		{
			"buffer":0,
			"byteLength":396,
			"byteOffset":2016,
			"target":34962
		},
		{
			"buffer":0,
			"byteLength":396,
			"byteOffset":2412,
			"target":34962
		},
		{
			"buffer":0,
			"byteLength":264,
			"byteOffset":2808,
			"target":34962
		},
		{
			"buffer":0,
			"byteLength":144,
			"byteOffset":3072,
			"target":34963
		},
		{
			"buffer":0,
			"byteLength":540,
			"byteOffset":3216,
			"target":34962
		},
		{
			"buffer":0,
			"byteLength":540,
			"byteOffset":3756,
			"target":34962
		},
		{
			"buffer":0,
			"byteLength":360,
			"byteOffset":4296,
			"target":34962
		},
		{
			"buffer":0,
			"byteLength":240,
			"byteOffset":4656,
			"target":34963
		},
		{
			"buffer":0,
			"byteLength":396,
			"byteOffset":4896,
			"target":34962
		},
		{
			"buffer":0,
			"byteLength":396,
			"byteOffset":5292,
			"target":34962
		},
		{
			"buffer":0,
			"byteLength":264,
			"byteOffset":5688,
			"target":34962
		},
		{
			"buffer":0,
			"byteLength":540,
			"byteOffset":5952,
			"target":34962
		},
		{
			"buffer":0,
			"byteLength":540,
			"byteOffset":6492,
			"target":34962
		},
		{
			"buffer":0,
			"byteLength":360,
			"byteOffset":7032,
			"target":34962
		},
		{
			"buffer":0,
			"byteLength":396,
			"byteOffset":7392,
			"target":34962
		},
		{
			"buffer":0,
			"byteLength":396,
			"byteOffset":7788,
			"target":34962
		},
		{
			"buffer":0,
			"byteLength":264,
			"byteOffset":8184,
			"target":34962
		},
		{
			"buffer":0,
			"byteLength":540,
			"byteOffset":8448,
			"target":34962
		},
		{
			"buffer":0,
			"byteLength":540,
			"byteOffset":8988,
			"target":34962
		},
		{
			"buffer":0,
			"byteLength":360,
			"byteOffset":9528,
			"target":34962
		},
		{
			"buffer":0,
			"byteLength":240,
			"byteOffset":9888,
			"target":34963
		}
	],
	"buffers":[
		{
			"byteLength":10128,
			"uri":"data:application/octet-stream;base64,"
		}
	]
}
